<svg width="20" height="20" viewBox="0 0 20 20" fill="none" xmlns="http://www.w3.org/2000/svg">
<path d="M18.5435 7.56734L6.20874 0.567054C4.55538 -0.373913 2.5365 -0.125594 1.18592 1.17657C-0.157104 2.47258 -0.381088 4.38121 0.62888 5.92452L3.29658 10.0003L0.62888 14.0761C-0.382169 15.6194 -0.158185 17.528 1.18592 18.8241C1.98935 19.5988 3.02834 20 4.08805 20C4.80822 20 5.5394 19.8143 6.20874 19.4336L18.5435 12.4333C19.4562 11.9161 20 11.0059 20 10.0003C20 8.9947 19.4562 8.08451 18.5435 7.56734ZM17.7119 11.1127L5.37715 18.1129C4.14551 18.8107 2.97209 18.352 2.34275 17.7446C1.71991 17.1432 1.25732 16.034 2.00669 14.8878L4.70237 10.7689H10.5383C10.986 10.7689 11.3493 10.4241 11.3493 9.99928C11.3493 9.57446 10.986 9.22968 10.5383 9.22968H4.70237L2.00669 5.11076C1.25732 3.96457 1.71882 2.85532 2.34275 2.254C2.74717 1.86407 3.37543 1.53469 4.09993 1.53469C4.50326 1.53469 4.93596 1.63627 5.37715 1.88664L17.7119 8.88696C18.1293 9.124 18.378 9.53957 18.378 9.99928C18.378 10.459 18.1293 10.8756 17.7119 11.1127Z" fill="white"/>
</svg>
