<svg width="26" height="22" viewBox="0 0 26 22" fill="none" xmlns="http://www.w3.org/2000/svg">
<path d="M13 3.57416L12.2908 4.2792C12.4785 4.468 12.7338 4.57416 13 4.57416C13.2662 4.57416 13.5215 4.468 13.7092 4.2792L13 3.57416ZM9.35408 19.1538L8.74738 19.9487H8.74738L9.35408 19.1538ZM16.6459 19.1538L16.0392 18.3589L16.6459 19.1538ZM7.05197 16.1517C6.62004 15.8075 5.99088 15.8787 5.64672 16.3106C5.30255 16.7426 5.37371 17.3717 5.80565 17.7159L7.05197 16.1517ZM1.32933 12.8385C1.60097 13.3194 2.211 13.489 2.69186 13.2173C3.17272 12.9457 3.34232 12.3356 3.07067 11.8548L1.32933 12.8385ZM2 7.7989C2 5.3664 3.4198 3.31294 5.37976 2.44558C7.28475 1.60254 9.84988 1.82393 12.2908 4.2792L13.7092 2.86912C10.7503 -0.107091 7.31544 -0.598132 4.57039 0.616664C1.8803 1.80714 0 4.58179 0 7.7989H2ZM8.74738 19.9487C9.36132 20.4173 10.0265 20.9218 10.7019 21.3039C11.3776 21.6862 12.1542 22 13 22V20C12.6458 20 12.2224 19.8662 11.6867 19.5631C11.1506 19.2598 10.5928 18.8412 9.96077 18.3589L8.74738 19.9487ZM17.2526 19.9487C18.9579 18.6472 21.1584 17.1415 22.8839 15.2604C24.6438 13.3418 26 10.9466 26 7.7989H24C24 10.3008 22.9445 12.2357 21.4101 13.9085C19.8413 15.6187 17.8647 16.9657 16.0392 18.3589L17.2526 19.9487ZM26 7.7989C26 4.58179 24.1197 1.80714 21.4296 0.616664C18.6846 -0.598132 15.2497 -0.107091 12.2908 2.86912L13.7092 4.2792C16.1501 1.82393 18.7152 1.60254 20.6202 2.44558C22.5802 3.31294 24 5.3664 24 7.7989H26ZM16.0392 18.3589C15.4072 18.8412 14.8494 19.2598 14.3133 19.5631C13.7776 19.8662 13.3542 20 13 20V22C13.8458 22 14.6224 21.6862 15.2981 21.3039C15.9735 20.9218 16.6387 20.4173 17.2526 19.9487L16.0392 18.3589ZM9.96078 18.3589C9.002 17.6271 8.03611 16.9359 7.05197 16.1517L5.80565 17.7159C6.80265 18.5103 7.85983 19.2714 8.74738 19.9487L9.96078 18.3589ZM3.07067 11.8548C2.40784 10.6815 2 9.35642 2 7.7989H0C0 9.73102 0.512267 11.3922 1.32933 12.8385L3.07067 11.8548Z" fill="black"/>
</svg>
