<svg width="17" height="19" viewBox="0 0 17 19" fill="none" xmlns="http://www.w3.org/2000/svg">
<path d="M10.6643 17.251C10.7533 17.406 10.7523 17.598 10.6623 17.752C10.2063 18.533 9.39829 19 8.50029 19C7.60229 19 6.79429 18.533 6.33829 17.752C6.24829 17.598 6.24729 17.406 6.33629 17.251C6.42529 17.096 6.5903 17 6.7703 17H10.2303C10.4093 17 10.5743 17.096 10.6643 17.251ZM16.8913 15.188C16.8723 15.165 14.9953 12.782 14.9953 10V6.495C14.9953 2.914 12.0813 0 8.50029 0C4.91929 0 2.00529 2.914 2.00529 6.495V10C2.00529 12.781 0.129295 15.164 0.109295 15.188C-0.0107046 15.338 -0.0337022 15.544 0.0492978 15.717C0.132298 15.89 0.307295 16 0.499295 16H16.4993C16.6913 16 16.8663 15.89 16.9493 15.717C17.0343 15.543 17.0103 15.338 16.8913 15.188Z" fill="#25314C"/>
</svg>
