<svg width="20" height="20" viewBox="0 0 20 20" fill="none" xmlns="http://www.w3.org/2000/svg">
<path d="M16.6667 0H3.33333C1.11111 0 0 1.33333 0 4V16C0 18.6667 1.11111 20 3.33333 20H16.6667C18.8889 20 20 18.6667 20 16V4C20 1.33333 18.8889 0 16.6667 0ZM16.601 6.14134L11.1434 10.904C10.8012 11.2027 10.4 11.352 10 11.352C9.6 11.352 9.19772 11.2027 8.85661 10.9053L3.39898 6.14134C3.02676 5.81734 2.94449 5.19067 3.2156 4.744C3.4856 4.29867 4.00433 4.19734 4.37988 4.52401L9.83778 9.28666C9.93556 9.37066 10.0655 9.37199 10.1633 9.28666L15.6212 4.52401C15.9956 4.19734 16.5155 4.29867 16.7855 4.744C17.0566 5.192 16.9732 5.81734 16.601 6.14134Z" fill="#25314C"/>
</svg>
