<svg width="44" height="44" viewBox="0 0 44 44" fill="none" xmlns="http://www.w3.org/2000/svg">
<g clip-path="url(#clip0_71_159)">
<path d="M2.78525 23.7256C2.78525 23.7256 1.2084 33.3907 10.8826 39.855C10.8826 39.855 15.68 44.0036 22.9935 42.2333C22.9935 42.2333 31.5279 42.6607 35.6733 37.8415C35.6733 37.8415 41.6465 32.9616 41.2202 24.2996C41.2202 24.2996 39.2713 28.6914 32.2306 29.1188C32.2306 29.1188 26.1652 29.4031 22.4155 23.2839C22.4155 23.2839 18.2394 28.9364 13.8503 28.9364C13.8503 28.9364 7.62958 30.5296 2.78525 23.7238V23.7256Z" fill="black"/>
<path d="M3.47876 10.0889L3.84362 0.0786743C3.84362 0.0786743 9.24789 3.45834 13.554 3.03633H30.6085C30.6085 3.03633 34.239 3.7963 40.5717 0.0786743V9.70982C40.5717 9.70982 38.2073 6.58408 33.9013 5.90815C33.9013 5.90815 26.5553 4.13427 22.419 11.9057C22.419 11.9057 19.464 5.65423 13.1313 5.99219C13.1313 5.99219 8.43328 4.55271 3.47876 10.0871V10.0889Z" fill="black" stroke="#231F20" stroke-width="0.5" stroke-miterlimit="10"/>
<path d="M12.6003 27.3002C18.021 27.3002 22.4154 22.9033 22.4154 17.4795C22.4154 12.0557 18.021 7.65881 12.6003 7.65881C7.17953 7.65881 2.78516 12.0557 2.78516 17.4795C2.78516 22.9033 7.17953 27.3002 12.6003 27.3002Z" stroke="black" stroke-width="4" stroke-miterlimit="10"/>
<path d="M32.2306 27.3002C37.6514 27.3002 42.0457 22.9033 42.0457 17.4795C42.0457 12.0557 37.6514 7.65881 32.2306 7.65881C26.8099 7.65881 22.4155 12.0557 22.4155 17.4795C22.4155 22.9033 26.8099 27.3002 32.2306 27.3002Z" stroke="black" stroke-width="4" stroke-miterlimit="10"/>
<path d="M29.1295 23.6604C30.8171 23.6604 32.1851 22.2665 32.1851 20.5472C32.1851 18.8278 30.8171 17.434 29.1295 17.434C27.442 17.434 26.074 18.8278 26.074 20.5472C26.074 22.2665 27.442 23.6604 29.1295 23.6604Z" fill="black"/>
<path d="M29.1295 22.4151C29.9171 22.4151 30.5555 21.7647 30.5555 20.9623C30.5555 20.1599 29.9171 19.5095 29.1295 19.5095C28.342 19.5095 27.7036 20.1599 27.7036 20.9623C27.7036 21.7647 28.342 22.4151 29.1295 22.4151Z" fill="white"/>
<path d="M15.6852 23.6604C17.3727 23.6604 18.7407 22.2665 18.7407 20.5472C18.7407 18.8278 17.3727 17.434 15.6852 17.434C13.9977 17.434 12.6296 18.8278 12.6296 20.5472C12.6296 22.2665 13.9977 23.6604 15.6852 23.6604Z" fill="black"/>
<path d="M15.6852 22.4151C16.4727 22.4151 17.1111 21.7647 17.1111 20.9623C17.1111 20.1599 16.4727 19.5095 15.6852 19.5095C14.8977 19.5095 14.2593 20.1599 14.2593 20.9623C14.2593 21.7647 14.8977 22.4151 15.6852 22.4151Z" fill="white"/>
<path d="M14.1953 42.2923V40.1858C14.1953 40.1858 15.0858 38.7875 16.0973 40.1858V42.2923H14.1953Z" fill="white"/>
<path d="M16.6318 42.2923V40.1858C16.6318 40.1858 17.5223 38.7875 18.5338 40.1858V42.2923H16.6318Z" fill="white"/>
<path d="M19.1155 42.2923V40.1858C19.1155 40.1858 20.006 38.7875 21.0174 40.1858V42.2923H19.1155Z" fill="white"/>
<path d="M22.9971 42.2923V40.1858C22.9971 40.1858 23.8875 38.7875 24.899 40.1858V42.2923H22.9971Z" fill="white"/>
<path d="M25.4155 42.2923V40.1858C25.4155 40.1858 26.306 38.7875 27.3175 40.1858V42.2923H25.4155Z" fill="white"/>
<path d="M27.9932 42.2923V40.1858C27.9932 40.1858 28.8836 38.7875 29.8951 40.1858V42.2923H27.9932Z" fill="white"/>
<path d="M11.9899 44H39.0618C39.0618 44 40.7904 43.2937 39.0618 42.2923H8.53456C8.53456 42.2923 3.58185 42.1028 1.91108 39.5653C1.91108 39.5653 0.816499 38.986 1.0477 40.2538C1.0477 40.2538 2.89006 44 11.9917 44H11.9899Z" fill="black"/>
<path d="M9.92882 40.3199L9.39056 41.0888C9.39056 41.0888 4.90386 41.5627 1.95427 36.2911C1.95427 36.2911 -0.225858 32.7345 0.0197908 28.6198C0.0197908 28.6198 0.182353 24.7913 1.9326 21.8981C1.9326 21.8981 1.60748 28.7557 3.0326 31.4988C3.0326 31.4988 4.28974 35.9711 9.93063 40.3199H9.92882Z" fill="black"/>
<path d="M34.658 40.9279L33.8994 40.3628C33.8994 40.3628 36.6323 39.1987 39.5168 34.5405C39.5168 34.5405 42.2984 29.9324 42.0456 25.6801V22.996L42.3508 22.4399C42.3508 22.4399 43.6748 24.5428 43.8825 27.5845C43.8825 27.5845 44.5038 31.2824 42.88 34.5995C42.88 34.5995 42.0347 37.8147 38.6823 39.9551C38.6823 39.9551 36.4191 41.3213 34.658 40.9297V40.9279Z" fill="black"/>
</g>
<defs>
<clipPath id="clip0_71_159">
<rect width="44" height="44" fill="white"/>
</clipPath>
</defs>
</svg>
