<svg width="30" height="40" viewBox="0 0 30 40" fill="none" xmlns="http://www.w3.org/2000/svg">
<path fill-rule="evenodd" clip-rule="evenodd" d="M23.3778 29.2898L26.5396 40.0005L20.1473 37.5339C16.8472 36.2673 13.155 36.2673 9.855 37.5339L3.46263 40.0005L6.62445 29.2898C6.90137 29.3342 7.15488 29.3563 7.4318 29.3785C7.59334 29.3785 7.75481 29.4007 7.93943 29.4007H8.56255L9.02398 29.8453C10.6163 31.3786 12.7396 32.2229 15.0011 32.2229C17.2627 32.2229 19.386 31.3786 20.9783 29.8453L21.4397 29.4007H22.0628C22.2474 29.4007 22.4089 29.3785 22.5704 29.3785C22.8474 29.3563 23.1009 29.3342 23.3778 29.2898ZM28.538 17.8477L27.8022 18.5565C27.3337 19.0076 27.0704 19.6209 27.0704 20.2587V21.2542C27.0704 23.8386 24.9494 25.9319 22.2933 26.0452C22.2194 26.0475 22.148 26.0675 22.0718 26.0675H21.038C20.3757 26.0675 19.7391 26.3208 19.2706 26.7719L18.5342 27.4807C16.5819 29.3607 13.418 29.3607 11.468 27.4807L10.7317 26.7719C10.2632 26.3208 9.62657 26.0675 8.96426 26.0675H7.93042C7.85426 26.0675 7.78515 26.0497 7.709 26.0452C5.05514 25.9319 2.9319 23.8386 2.9319 21.2542V20.2587C2.9319 19.6209 2.6685 19.0076 2.20004 18.5565L1.46424 17.8477C-0.488079 15.9678 -0.488079 12.9212 1.46424 11.0434L2.20004 10.3346C2.6685 9.88355 2.9319 9.27025 2.9319 8.63249V7.63696C2.9319 4.97925 5.16815 2.82372 7.92816 2.82372H8.96201C9.62432 2.82372 10.2609 2.57035 10.7294 2.11926L11.4658 1.41045C13.4181 -0.4695 16.582 -0.4695 18.532 1.41045L19.2683 2.11926C19.7368 2.57035 20.3734 2.82372 21.0357 2.82372H22.0696C24.8296 2.82372 27.0658 4.97703 27.0658 7.63696V8.63249C27.0658 9.27025 27.3287 9.88355 27.7971 10.3346L28.5335 11.0434C30.4881 12.9212 30.488 15.97 28.538 17.8477ZM21.2645 12.3767L17.8165 11.8968C17.5649 11.8613 17.348 11.7102 17.2373 11.4924L15.7443 8.59017C15.4419 8.0013 14.5671 8.0013 14.2625 8.59017L12.7695 11.4924C12.6564 11.7102 12.4395 11.8613 12.1903 11.8968L8.74284 12.3767C8.11053 12.4656 7.85655 13.2122 8.31578 13.6389L10.8083 15.9679C10.9906 16.139 11.0735 16.3833 11.0297 16.6233L10.4595 19.8076C10.3441 20.4542 11.0504 20.9497 11.6573 20.6431L14.6456 19.1365C14.8695 19.0232 15.1372 19.0232 15.3634 19.1365L18.3539 20.6431C18.9586 20.9475 19.6649 20.4542 19.5495 19.8076L18.9799 16.6189C18.936 16.3789 19.019 16.1322 19.2013 15.9633L21.6932 13.6345C22.1478 13.2123 21.8968 12.4656 21.2645 12.3767Z" fill="#25314C"/>
</svg>
