<svg width="30" height="30" viewBox="0 0 30 30" fill="none" xmlns="http://www.w3.org/2000/svg">
<path d="M25 5.34247H22.9167V2.87671C22.9167 1.29863 21.6 0 20 0H10C8.38333 0 7.08333 1.29863 7.08333 2.87671V5.34247H5C1.66667 5.34247 0 6.9863 0 10.274V11.852C0 13.3808 0.916673 14.7288 2.35001 15.2713C4.65001 16.1754 7.03332 16.8659 9.41666 17.359C9.59999 17.3919 9.76666 17.2603 9.86666 17.1124C11.0667 15.337 13 14.2686 15 14.2686C17.0167 14.2686 18.9333 15.337 20.15 17.1124C20.25 17.2603 20.4167 17.3919 20.6 17.359C22.9833 16.8659 25.35 16.1754 27.65 15.2878C29.0833 14.7288 30 13.3808 30 11.852V10.274C30 6.9863 28.3333 5.34247 25 5.34247ZM9.58333 5.34247V2.87671C9.58333 2.64658 9.76667 2.46575 10 2.46575H20C20.2333 2.46575 20.4167 2.64658 20.4167 2.87671V5.34247H9.58333ZM21.1 19.7754C20.9167 19.8083 20.7167 19.8248 20.5333 19.8248C19.5667 19.8248 18.65 19.3315 18.0667 18.4767C17.3333 17.3918 16.1833 16.7343 15 16.7343C13.8333 16.7343 12.6833 17.3918 11.95 18.4767C11.25 19.4959 10.0667 20.0055 8.91668 19.7754C6.38334 19.2658 3.86667 18.5259 1.43333 17.5725C0.916668 17.3752 0.433333 17.1122 0 16.767V25.0685C0 28.3562 1.66667 30 5 30H25C28.3333 30 30 28.3562 30 25.0685V16.7835C29.5667 17.1123 29.0833 17.3752 28.5667 17.5725C26.1333 18.5259 23.6167 19.2658 21.1 19.7754ZM15.0033 21.7808C14.085 21.7808 13.3333 21.0444 13.3333 20.137C13.3333 19.2296 14.0717 18.4932 14.99 18.4932H15.0033C15.9217 18.4932 16.6667 19.2296 16.6667 20.137C16.6667 21.0444 15.9217 21.7808 15.0033 21.7808Z" fill="#25314C"/>
</svg>
