<svg width="30" height="30" viewBox="0 0 30 30" fill="none" xmlns="http://www.w3.org/2000/svg">
<path d="M7.22165 16.125C7.44732 20.745 9.01202 25.455 11.7352 29.64C5.35605 28.23 0.496489 22.785 0 16.125H7.22165ZM11.7352 0.359985C5.35605 1.76999 0.496489 7.215 0 13.875H7.22165C7.44732 9.255 9.01202 4.54499 11.7352 0.359985ZM15.3009 0H14.6991L14.2477 0.644989C11.3892 4.69499 9.71914 9.345 9.47842 13.875H20.5216C20.2809 9.345 18.6108 4.69499 15.7523 0.644989L15.3009 0ZM9.47842 16.125C9.71914 20.655 11.3892 25.305 14.2477 29.355L14.6991 30H15.3009L15.7523 29.355C18.6108 25.305 20.2809 20.655 20.5216 16.125H9.47842ZM22.7784 16.125C22.5527 20.745 20.988 25.455 18.2648 29.64C24.644 28.23 29.5035 22.785 30 16.125H22.7784ZM30 13.875C29.5035 7.215 24.644 1.76999 18.2648 0.359985C20.988 4.54499 22.5527 9.255 22.7784 13.875H30Z" fill="#25314C"/>
</svg>
