<svg width="30" height="30" viewBox="0 0 30 30" fill="none" xmlns="http://www.w3.org/2000/svg">
<path d="M25.0048 19.535V23.8121C25.0048 25.1134 24.3928 26.3154 23.4143 27.0111C17.8063 30.9957 12.1967 30.9957 6.58882 27.0111C5.61027 26.3173 4.99871 25.1134 4.99871 23.8121V19.535C4.99871 19.3925 5.13365 19.3027 5.24534 19.3702L11.3669 23.1371C12.4671 23.8121 13.734 24.1685 15.0009 24.1685C16.2679 24.1685 17.5347 23.8121 18.635 23.1371L24.7565 19.3702C24.8699 19.3008 25.0048 19.3925 25.0048 19.535ZM28.2338 7.32081L17.4465 0.699858C15.9245 -0.233937 14.0839 -0.233937 12.5602 0.699858L1.77289 7.32081C-0.590965 8.77026 -0.590965 12.588 1.77289 14.0393L12.5602 20.6602C14.0822 21.594 15.9229 21.594 17.4465 20.6602L28.2338 14.0393L27.0886 14.7424V22.4996C27.0886 23.2759 27.6487 23.9059 28.3389 23.9059C29.029 23.9059 29.5891 23.2759 29.5891 22.4996V12.5073C30.4293 10.7597 29.9826 8.39336 28.2338 7.32081Z" fill="#25314C"/>
</svg>
