<svg width="24" height="24" viewBox="0 0 24 24" fill="none" xmlns="http://www.w3.org/2000/svg">
<path d="M12 24C5.3827 24 0 18.6173 0 12C0 5.3827 5.3827 0 12 0C18.6173 0 24 5.3827 24 12C24 18.6173 18.6173 24 12 24ZM12 1.67442C6.30586 1.67442 1.67442 6.30586 1.67442 12C1.67442 17.6941 6.30586 22.3256 12 22.3256C17.6941 22.3256 22.3256 17.6941 22.3256 12C22.3256 6.30586 17.6941 1.67442 12 1.67442ZM16.0375 14.7092C16.2998 14.3297 16.205 13.8073 15.8255 13.545C15.4448 13.2804 14.9236 13.3775 14.6602 13.757C14.0909 14.5797 13.1541 15.0709 12.1562 15.0709C10.4628 15.0709 9.08639 13.6945 9.08639 12.0011C9.08639 10.3077 10.4628 8.93132 12.1562 8.93132C13.1552 8.93132 14.0909 9.42249 14.6602 10.2452C14.9236 10.6247 15.4448 10.7229 15.8255 10.4572C16.2061 10.1938 16.301 9.6725 16.0375 9.29297C15.1545 8.01818 13.7033 7.25799 12.1551 7.25799C9.53851 7.25799 7.41088 9.38674 7.41088 12.0022C7.41088 14.6176 9.53851 16.7464 12.1551 16.7464C13.7033 16.7441 15.1545 15.9829 16.0375 14.7092Z" fill="white" fill-opacity="0.44"/>
</svg>
