<svg width="20" height="20" viewBox="0 0 20 20" fill="none" xmlns="http://www.w3.org/2000/svg">
<path d="M8.87937 12.1206C8.62325 12.1206 8.36735 12.0226 8.17226 11.8276C6.42946 10.0845 6.22032 7.38436 7.67398 5.40826C7.77803 5.24425 7.95218 5.03425 8.17128 4.81424L11.5327 1.45308C12.4711 0.516029 13.7168 0 15.0414 0C16.365 0 17.6104 0.516029 18.5488 1.45308C20.4837 3.38717 20.4837 6.53434 18.5488 8.46744L16.7081 10.3075C16.317 10.6985 15.6846 10.6985 15.2934 10.3075C14.9023 9.91751 14.9023 9.28447 15.2934 8.89345L17.1344 7.05336C18.2879 5.89931 18.2879 4.02121 17.1344 2.86715C16.0149 1.74909 14.0679 1.74909 12.9474 2.86715L9.58673 6.2273C9.46967 6.34431 9.37981 6.45234 9.31878 6.54534C8.42137 7.7684 8.54725 9.37547 9.58673 10.4135C9.9779 10.8045 9.9779 11.4376 9.58673 11.8276C9.39164 12.0226 9.13549 12.1206 8.87937 12.1206ZM8.46732 18.5479L11.8277 15.1878C12.364 14.6517 12.7692 14.0047 12.9923 13.3387C13.6346 11.5506 13.1774 9.52348 11.8277 8.17342C11.4366 7.7824 10.8045 7.78239 10.4133 8.17241C10.0221 8.56243 10.0221 9.19646 10.4133 9.58648C11.2296 10.4045 11.4968 11.5826 11.1016 12.6826C10.9695 13.0777 10.7314 13.4537 10.4133 13.7727L7.05261 17.1329C5.93309 18.2519 3.98614 18.2509 2.86563 17.1329C1.7121 15.9788 1.7121 14.1007 2.86563 12.9467L4.70656 11.1065C5.09774 10.7155 5.09774 10.0825 4.70656 9.69247C4.31538 9.30145 3.68303 9.30145 3.29185 9.69247L1.45116 11.5326C-0.483721 13.4667 -0.483721 16.6128 1.45116 18.5469C2.38959 19.484 3.63502 20 4.95863 20C6.28324 20.001 7.52889 19.485 8.46732 18.5479Z" fill="#087DBF"/>
</svg>
