<svg width="30" height="30" viewBox="0 0 30 30" fill="none" xmlns="http://www.w3.org/2000/svg">
<path d="M10.7272 12.6316C13.8786 12.6316 16.4415 9.79895 16.4415 6.31579C16.4415 2.83263 13.8786 0 10.7272 0C7.57576 0 5.0129 2.83263 5.0129 6.31579C5.0129 9.79895 7.57576 12.6316 10.7272 12.6316ZM10.7272 1.57895C13.09 1.57895 15.0129 3.70421 15.0129 6.31579C15.0129 8.92737 13.09 11.0526 10.7272 11.0526C8.36433 11.0526 6.44148 8.92737 6.44148 6.31579C6.44148 3.70421 8.3629 1.57895 10.7272 1.57895ZM13.5714 15.7895H7.85714C2.05714 15.7895 0 20.4838 0 24.5038C0 28.099 1.73007 30 5.00436 30H16.4242C19.6985 30 21.4286 28.099 21.4286 24.5038C21.4286 20.4838 19.3714 15.7895 13.5714 15.7895ZM16.4242 28.4211H5.00436C2.5315 28.4211 1.42857 27.2132 1.42857 24.5038C1.42857 22.8301 1.89143 17.3684 7.85714 17.3684H13.5714C19.69 17.3684 20 23.3116 20 24.5038C20 27.2132 18.8985 28.4211 16.4242 28.4211ZM18.3285 11.902C18.0471 11.5973 18.0415 11.0969 18.3172 10.7859C18.5915 10.4748 19.0472 10.4684 19.3272 10.7732C19.9072 11.4016 20.6842 11.7473 21.5128 11.7473C23.2628 11.7473 24.6858 10.1747 24.6858 8.24206C24.6858 6.30943 23.2628 4.73684 21.5128 4.73684C21.0157 4.73684 20.5643 4.85047 20.1686 5.07626C19.8201 5.27521 19.3871 5.12372 19.2071 4.7353C19.0256 4.34688 19.1643 3.87166 19.5157 3.67271C20.1157 3.33166 20.7885 3.15944 21.5128 3.15944C24.0499 3.15944 26.1143 5.44097 26.1143 8.2436C26.1143 11.0462 24.0514 13.328 21.5128 13.328C20.3085 13.3264 19.1771 12.821 18.3285 11.902ZM30 22.3896C30 25.2601 28.5586 26.8421 25.9429 26.8421H24.9714C24.5771 26.8421 24.2571 26.4884 24.2571 26.0526C24.2571 25.6168 24.5771 25.2632 24.9714 25.2632H25.9429C27.76 25.2632 28.5714 24.3775 28.5714 22.3896C28.5714 21.1296 28.2228 17.0211 23.7286 17.0211H21.57C21.1757 17.0211 20.8557 16.6674 20.8557 16.2316C20.8557 15.7958 21.1757 15.4422 21.57 15.4422H23.7286C28.3586 15.4422 30 19.1843 30 22.3896Z" fill="black"/>
</svg>
