<svg width="30" height="30" viewBox="0 0 30 30" fill="none" xmlns="http://www.w3.org/2000/svg">
<path d="M12.75 25.7143H5.25C2.6565 25.7143 1.5 24.6129 1.5 22.1429V5C1.5 2.53 2.6565 1.42857 5.25 1.42857H13.5V5C13.5 8.27143 15.315 10 18.75 10H22.5V13.5714C22.5 13.9657 22.836 14.2857 23.25 14.2857C23.664 14.2857 24 13.9657 24 13.5714V9.28571C24 9.09571 23.9205 8.91428 23.781 8.77999L14.781 0.208566C14.64 0.0742801 14.4495 0 14.25 0H5.25C1.815 0 0 1.72857 0 5V22.1429C0 25.4143 1.815 27.1429 5.25 27.1429H12.75C13.164 27.1429 13.5 26.8229 13.5 26.4286C13.5 26.0343 13.164 25.7143 12.75 25.7143ZM15 5V2.43857L21.4395 8.57143H18.75C16.1565 8.57143 15 7.47 15 5ZM17.25 12.8571C17.664 12.8571 18 13.1771 18 13.5714C18 13.9657 17.664 14.2857 17.25 14.2857H6.75C6.336 14.2857 6 13.9657 6 13.5714C6 13.1771 6.336 12.8571 6.75 12.8571H17.25ZM13.5 19.2857C13.5 19.68 13.164 20 12.75 20H6.75C6.336 20 6 19.68 6 19.2857C6 18.8914 6.336 18.5714 6.75 18.5714H12.75C13.164 18.5714 13.5 18.8914 13.5 19.2857ZM23.25 17.1429C19.5285 17.1429 16.5 20.0271 16.5 23.5714C16.5 27.1157 19.5285 30 23.25 30C26.9715 30 30 27.1157 30 23.5714C30 20.0271 26.9715 17.1429 23.25 17.1429ZM23.25 28.5714C20.355 28.5714 18 26.3286 18 23.5714C18 20.8143 20.355 18.5714 23.25 18.5714C26.145 18.5714 28.5 20.8143 28.5 23.5714C28.5 26.3286 26.145 28.5714 23.25 28.5714ZM25.656 21.8757C25.9485 22.1543 25.9485 22.6071 25.656 22.8857L23.1555 25.2672C23.0145 25.4014 22.824 25.4757 22.6245 25.4757C22.425 25.4757 22.2345 25.4 22.0935 25.2672L20.844 24.0771C20.5515 23.7986 20.5515 23.3457 20.844 23.0671C21.1365 22.7886 21.612 22.7886 21.9045 23.0671L22.623 23.7529L24.5925 21.8771C24.888 21.5971 25.362 21.5971 25.656 21.8757Z" fill="black"/>
</svg>
