<svg width="30" height="30" viewBox="0 0 30 30" fill="none" xmlns="http://www.w3.org/2000/svg">
<path d="M24.4737 4.73684H22.1053V2.36842C22.1053 1.06263 21.0426 0 19.7368 0H10.2632C8.95737 0 7.89474 1.06263 7.89474 2.36842V4.73684H5.52632C1.91053 4.73684 0 6.64737 0 10.2632V24.4737C0 28.0895 1.91053 30 5.52632 30H24.4737C28.0895 30 30 28.0895 30 24.4737V10.2632C30 6.64737 28.0895 4.73684 24.4737 4.73684ZM9.47368 2.36842C9.47368 1.93263 9.82737 1.57895 10.2632 1.57895H19.7368C20.1726 1.57895 20.5263 1.93263 20.5263 2.36842V4.73684H9.47368V2.36842ZM1.57895 10.2632C1.57895 7.53316 2.79632 6.31579 5.52632 6.31579H24.4737C27.2037 6.31579 28.4211 7.53316 28.4211 10.2632V10.4511V13.8206C28.4211 14.4443 28.0532 15.011 27.4832 15.2652C26.1 15.8826 23.7426 16.7606 20.3811 17.4474C20.0763 17.5106 19.7463 17.3526 19.5426 17.0479C18.4721 15.4484 16.7747 14.4931 15.0016 14.4931C13.2284 14.4931 11.5311 15.4484 10.4605 17.0494C10.2568 17.3542 9.92369 17.5106 9.62053 17.4474C6.25895 16.7606 3.90316 15.881 2.51842 15.2652C1.94842 15.011 1.58053 14.4443 1.58053 13.8206V10.4511V10.2632H1.57895ZM24.4737 28.4211H5.52632C2.79632 28.4211 1.57895 27.2037 1.57895 24.4737V16.5205C1.68 16.5805 1.76526 16.6596 1.8742 16.7069C3.32999 17.3559 5.80106 18.2795 9.30159 18.9948C10.2411 19.1874 11.2089 18.7674 11.7695 17.9274C12.5463 16.7653 13.7542 16.072 14.9984 16.072C16.2426 16.072 17.4505 16.7653 18.2274 17.9258C18.6979 18.6316 19.4558 19.0405 20.2421 19.0405C20.3921 19.0405 20.5437 19.0248 20.6953 18.9948C24.1958 18.2795 26.6668 17.3559 28.1242 16.7069C28.2332 16.658 28.3184 16.579 28.4195 16.5205V24.4737C28.421 27.2037 27.2037 28.4211 24.4737 28.4211ZM16.1842 19.7368C16.1842 20.3921 15.6553 20.9211 15.0063 20.9211C14.3542 20.9211 13.8158 20.3921 13.8158 19.7368C13.8158 19.0816 14.3321 18.5526 14.9811 18.5526H15.0047C15.6553 18.5526 16.1842 19.0816 16.1842 19.7368Z" fill="black"/>
</svg>
