<svg width="30" height="30" viewBox="0 0 30 30" fill="none" xmlns="http://www.w3.org/2000/svg">
<path d="M29.7689 28.6531L23.4386 22.3228C25.5482 19.951 26.843 16.8388 26.843 13.4218C26.843 6.02085 20.8222 0 13.4215 0C6.02072 0 0 6.02085 0 13.4218C0 20.8227 6.02072 26.8435 13.4215 26.8435C16.8384 26.8435 19.9507 25.5487 22.3223 23.4391L28.6525 29.7695C28.8072 29.9242 29.0093 30 29.2115 30C29.4136 30 29.6157 29.9226 29.7704 29.7695C30.0768 29.4616 30.0768 28.9626 29.7689 28.6531ZM1.57746 13.4218C1.57746 6.89247 6.8892 1.57903 13.4199 1.57903C19.9507 1.57903 25.2624 6.89247 25.2624 13.4218C25.2624 19.9511 19.9507 25.2645 13.4199 25.2645C6.8892 25.2645 1.57746 19.9511 1.57746 13.4218Z" fill="black"/>
</svg>
