<svg width="24" height="24" viewBox="0 0 24 24" fill="none" xmlns="http://www.w3.org/2000/svg">
<path d="M23.7295 22.4246L19.0021 17.6972C20.5824 15.8228 21.5387 13.4068 21.5387 10.7692C21.5387 4.83077 16.7079 0 10.7694 0C4.83082 0 0 4.83077 0 10.7692C0 16.7077 4.83082 21.5385 10.7694 21.5385C13.4069 21.5385 15.823 20.5821 17.6975 19.0018L22.4248 23.7292C22.6045 23.9089 22.8409 24 23.0772 24C23.3135 24 23.5498 23.9102 23.7295 23.7292C24.0902 23.3698 24.0902 22.7852 23.7295 22.4246ZM1.84617 10.7692C1.84617 5.84862 5.84868 1.84615 10.7694 1.84615C15.69 1.84615 19.6925 5.84862 19.6925 10.7692C19.6925 15.6898 15.69 19.6923 10.7694 19.6923C5.84868 19.6923 1.84617 15.6898 1.84617 10.7692Z" fill="black" fill-opacity="0.53"/>
</svg>
