<svg width="24" height="24" viewBox="0 0 24 24" fill="none" xmlns="http://www.w3.org/2000/svg">
<path d="M0 3.6C0 2.9376 0.5376 2.4 1.2 2.4H6V1.2C6 0.5376 6.5376 0 7.2 0C7.8624 0 8.4 0.5376 8.4 1.2V6C8.4 6.6624 7.8624 7.2 7.2 7.2C6.5376 7.2 6 6.6624 6 6V4.8H1.2C0.5376 4.8 0 4.2624 0 3.6ZM12 4.8H22.8C23.4624 4.8 24 4.2624 24 3.6C24 2.9376 23.4624 2.4 22.8 2.4H12C11.3376 2.4 10.8 2.9376 10.8 3.6C10.8 4.2624 11.3376 4.8 12 4.8ZM1.2 13.2H12C12.6624 13.2 13.2 12.6624 13.2 12C13.2 11.3376 12.6624 10.8 12 10.8H1.2C0.5376 10.8 0 11.3376 0 12C0 12.6624 0.5376 13.2 1.2 13.2ZM22.8 10.8H18V9.6C18 8.9376 17.4624 8.4 16.8 8.4C16.1376 8.4 15.6 8.9376 15.6 9.6V14.4C15.6 15.0624 16.1376 15.6 16.8 15.6C17.4624 15.6 18 15.0624 18 14.4V13.2H22.8C23.4624 13.2 24 12.6624 24 12C24 11.3376 23.4624 10.8 22.8 10.8ZM7.2 16.8C6.5376 16.8 6 17.3376 6 18V19.2H1.2C0.5376 19.2 0 19.7376 0 20.4C0 21.0624 0.5376 21.6 1.2 21.6H6V22.8C6 23.4624 6.5376 24 7.2 24C7.8624 24 8.4 23.4624 8.4 22.8V18C8.4 17.3376 7.8624 16.8 7.2 16.8ZM22.8 19.2H12C11.3376 19.2 10.8 19.7376 10.8 20.4C10.8 21.0624 11.3376 21.6 12 21.6H22.8C23.4624 21.6 24 21.0624 24 20.4C24 19.7376 23.4624 19.2 22.8 19.2Z" fill="#25314C"/>
</svg>
